<svg xmlns="http://www.w3.org/2000/svg" xmlns:xlink="http://www.w3.org/1999/xlink" width="1084" zoomAndPan="magnify" viewBox="0 0 812.88 194.87999" height="250" preserveAspectRatio="xMidYMid meet" version="1.0"><defs><clipPath id="1fc8fa4071"><path d="M 69.914062 68.527344 L 148.671875 68.527344 L 148.671875 147.171875 L 69.914062 147.171875 Z M 69.914062 68.527344 " clip-rule="nonzero"/></clipPath></defs><path fill="#000000" d="M 174.917969 110.441406 L 174.917969 81.460938 C 174.917969 64.332031 186.550781 52.355469 203.34375 52.355469 C 222.050781 52.355469 231.773438 64.566406 231.773438 84.089844 L 231.773438 84.328125 L 215.214844 84.328125 L 215.214844 83.136719 C 215.214844 70.675781 209.097656 68.167969 203.34375 68.167969 C 197.589844 68.167969 191.585938 71.285156 191.585938 80.976562 L 191.585938 110.910156 C 191.585938 120.851562 197.574219 123.84375 203.34375 123.84375 C 211.027344 123.84375 215.214844 120.132812 215.214844 107.796875 L 215.214844 106.730469 L 231.773438 106.730469 L 231.773438 107.214844 C 231.773438 128.414062 222.410156 139.671875 203.34375 139.671875 C 186.550781 139.65625 174.917969 127.695312 174.917969 110.441406 " fill-opacity="1" fill-rule="nonzero"/><path fill="#000000" d="M 240.519531 112.835938 L 240.519531 96.664062 C 240.519531 80.742188 249.757812 70.3125 266.0625 70.3125 C 282.007812 70.3125 291.605469 80.742188 291.605469 96.664062 L 291.605469 112.835938 C 291.605469 129.371094 282.007812 139.546875 266.0625 139.546875 C 249.757812 139.546875 240.519531 129.371094 240.519531 112.835938 M 266.0625 125.535156 C 271.347656 125.535156 275.785156 122.308594 275.785156 115.121094 L 275.785156 94.769531 C 275.785156 87.582031 271.472656 84.46875 266.0625 84.46875 C 260.542969 84.46875 256.339844 87.582031 256.339844 94.769531 L 256.339844 115.121094 C 256.355469 122.292969 260.558594 125.535156 266.0625 125.535156 " fill-opacity="1" fill-rule="nonzero"/><path fill="#000000" d="M 303.597656 47.441406 L 319.433594 47.441406 L 319.433594 138.339844 L 303.597656 138.339844 Z M 303.597656 47.441406 " fill-opacity="1" fill-rule="nonzero"/><path fill="#000000" d="M 334.0625 47.441406 L 349.898438 47.441406 L 349.898438 138.339844 L 334.0625 138.339844 Z M 334.0625 47.441406 " fill-opacity="1" fill-rule="nonzero"/><path fill="#000000" d="M 362.003906 114.511719 L 362.003906 94.988281 C 362.003906 77.625 370.285156 70.203125 382.152344 70.203125 C 392.109375 70.203125 397.265625 76.4375 398.222656 78.582031 L 398.222656 71.035156 L 413.089844 71.035156 L 413.089844 138.339844 L 398.222656 138.339844 L 398.222656 130.921875 C 397.265625 133.191406 392.109375 139.421875 382.152344 139.421875 C 370.046875 139.421875 362.003906 131.765625 362.003906 114.511719 M 387.671875 125.410156 C 393.425781 125.410156 397.265625 121.574219 397.265625 113.308594 L 397.265625 95.960938 C 397.265625 87.816406 393.191406 84.21875 387.671875 84.21875 C 381.792969 84.21875 377.949219 87.925781 377.949219 96.195312 L 377.949219 113.324219 C 377.964844 121.699219 381.792969 125.410156 387.671875 125.410156 " fill-opacity="1" fill-rule="nonzero"/><path fill="#000000" d="M 441.042969 131.046875 L 441.042969 138.355469 L 426.289062 138.355469 L 426.289062 47.925781 L 442 47.925781 L 442 77.140625 C 442 77.140625 446.5625 70.3125 457.117188 70.3125 C 469.34375 70.3125 477.390625 77.859375 477.390625 94.988281 L 477.390625 114.621094 C 477.390625 131.859375 469.359375 139.40625 457.117188 139.40625 C 447.269531 139.421875 442 133.316406 441.042969 131.046875 M 451.722656 125.535156 C 457.476562 125.535156 461.425781 121.699219 461.425781 113.449219 L 461.425781 96.304688 C 461.425781 88.164062 457.585938 84.328125 451.722656 84.328125 C 446.078125 84.328125 442 87.910156 442 95.945312 L 442 113.433594 C 442 121.699219 445.953125 125.535156 451.722656 125.535156 " fill-opacity="1" fill-rule="nonzero"/><path fill="#000000" d="M 482.53125 53.921875 L 499.074219 53.921875 L 511.429688 111.398438 L 523.3125 53.921875 L 538.179688 53.921875 L 550.046875 111.398438 L 562.402344 53.921875 L 579.085938 53.921875 L 559.171875 138.339844 L 542.253906 138.339844 L 530.746094 82.417969 L 519.238281 138.339844 L 502.320312 138.339844 Z M 482.53125 53.921875 " fill-opacity="1" fill-rule="nonzero"/><path fill="#000000" d="M 584.949219 110.441406 L 584.949219 81.695312 C 584.949219 64.457031 596.582031 52.355469 613.375 52.355469 C 630.042969 52.355469 641.804688 64.457031 641.804688 81.695312 L 641.804688 110.441406 C 641.804688 127.570312 630.042969 139.546875 613.375 139.546875 C 596.582031 139.546875 584.949219 127.570312 584.949219 110.441406 M 613.375 123.734375 C 619.019531 123.734375 625.246094 120.742188 625.246094 111.035156 L 625.246094 81.101562 C 625.246094 71.644531 619.601562 68.167969 613.375 68.167969 C 607.496094 68.167969 601.617188 71.285156 601.617188 80.976562 L 601.617188 110.910156 C 601.617188 120.382812 607.136719 123.734375 613.375 123.734375 " fill-opacity="1" fill-rule="nonzero"/><path fill="#000000" d="M 655.097656 53.90625 L 681.957031 53.90625 C 698.875 53.90625 710.257812 64.804688 710.257812 84.453125 L 710.257812 86.847656 C 710.257812 99.90625 704.613281 108.640625 695.503906 112.710938 L 709.773438 138.339844 L 691.664062 138.339844 L 680.265625 116.546875 L 671.625 116.546875 L 671.625 138.339844 L 655.066406 138.339844 L 655.066406 53.90625 Z M 679.933594 100.859375 C 687.132812 100.859375 693.84375 97.742188 693.84375 86.613281 L 693.84375 84.21875 C 693.84375 72.601562 687.367188 69.71875 679.933594 69.71875 L 671.65625 69.71875 L 671.65625 100.859375 Z M 679.933594 100.859375 " fill-opacity="1" fill-rule="nonzero"/><path fill="#000000" d="M 723.460938 53.921875 L 740.019531 53.921875 L 740.019531 88.648438 L 746.492188 88.648438 L 763.035156 53.921875 L 781.632812 53.921875 L 760.636719 95.835938 L 781.632812 138.339844 L 763.035156 138.339844 L 746.492188 103.253906 L 740.019531 103.253906 L 740.019531 138.339844 L 723.460938 138.339844 Z M 723.460938 53.921875 " fill-opacity="1" fill-rule="nonzero"/><path fill="#9c9cff" d="M 110.007812 79.253906 C 110.007812 100.96875 92.367188 118.582031 70.621094 118.582031 C 48.871094 118.582031 31.25 100.96875 31.25 79.253906 C 31.25 57.539062 48.871094 39.925781 70.621094 39.925781 C 92.367188 39.925781 110.007812 57.539062 110.007812 79.253906 " fill-opacity="1" fill-rule="nonzero"/><g clip-path="url(#1fc8fa4071)"><path fill="#c2c2ff" d="M 148.671875 107.859375 C 148.671875 129.574219 131.03125 147.1875 109.285156 147.1875 C 87.539062 147.1875 69.914062 129.574219 69.914062 107.859375 C 69.914062 86.144531 87.539062 68.527344 109.285156 68.527344 C 131.03125 68.527344 148.671875 86.144531 148.671875 107.859375 " fill-opacity="1" fill-rule="nonzero"/></g></svg>