<?xml version="1.0" encoding="utf-8"?>
<!-- Generator: Adobe Illustrator 23.1.1, SVG Export Plug-In . SVG Version: 6.00 Build 0)  -->
<svg version="1.1" id="Layer_1" xmlns="http://www.w3.org/2000/svg" xmlns:xlink="http://www.w3.org/1999/xlink" x="0px" y="0px"
	 viewBox="0 0 517.12 117.77" style="enable-background:new 0 0 517.12 117.77;" xml:space="preserve">
<style type="text/css">
	.st0{fill:#9C9CFF;}
	.st1{clip-path:url(#SVGID_2_);fill:#C2C2FF;}
</style>
<path d="M110.9,69.67V51.16c0-10.94,7.42-18.59,18.13-18.59c11.93,0,18.13,7.8,18.13,20.27v0.15h-10.56v-0.76
	c0-7.96-3.9-9.56-7.57-9.56s-7.5,1.99-7.5,8.18v19.12c0,6.35,3.82,8.26,7.5,8.26c4.9,0,7.57-2.37,7.57-10.25V67.3h10.56v0.31
	c0,13.54-5.97,20.73-18.13,20.73C118.32,88.33,110.9,80.69,110.9,69.67"/>
<path d="M152.74,71.2V60.87c0-10.17,5.89-16.83,16.29-16.83c10.17,0,16.29,6.66,16.29,16.83V71.2c0,10.56-6.12,17.06-16.29,17.06
	C158.63,88.26,152.74,81.76,152.74,71.2 M169.03,79.31c3.37,0,6.2-2.06,6.2-6.65v-13c0-4.59-2.75-6.58-6.2-6.58
	c-3.52,0-6.2,1.99-6.2,6.58v13C162.84,77.24,165.52,79.31,169.03,79.31"/>
<rect x="192.97" y="29.43" width="10.1" height="58.06"/>
<rect x="212.4" y="29.43" width="10.1" height="58.06"/>
<path d="M230.22,72.27V59.8c0-11.09,5.28-15.83,12.85-15.83c6.35,0,9.64,3.98,10.25,5.35V44.5h9.48v42.99h-9.48v-4.74
	c-0.61,1.45-3.9,5.43-10.25,5.43C235.35,88.18,230.22,83.29,230.22,72.27 M246.59,79.23c3.67,0,6.12-2.45,6.12-7.73V60.42
	c0-5.2-2.6-7.5-6.12-7.5c-3.75,0-6.2,2.37-6.2,7.65v10.94C240.4,76.86,242.84,79.23,246.59,79.23"/>
<path d="M280.63,82.83v4.67h-9.41V29.74h10.02V48.4c0,0,2.91-4.36,9.64-4.36c7.8,0,12.93,4.82,12.93,15.76v12.54
	c0,11.01-5.12,15.83-12.93,15.83C284.6,88.18,281.24,84.28,280.63,82.83 M287.44,79.31c3.67,0,6.19-2.45,6.19-7.72V60.64
	c0-5.2-2.45-7.65-6.19-7.65c-3.6,0-6.2,2.29-6.2,7.42v11.17C281.24,76.86,283.76,79.31,287.44,79.31"/>
<polygon points="307.09,33.57 317.64,33.57 325.52,70.28 333.1,33.57 342.58,33.57 350.15,70.28 358.03,33.57 368.67,33.57 
	355.97,87.49 345.18,87.49 337.84,51.77 330.5,87.49 319.71,87.49 "/>
<path d="M372.41,69.67V51.31c0-11.01,7.42-18.74,18.13-18.74c10.63,0,18.13,7.73,18.13,18.74v18.36c0,10.94-7.5,18.59-18.13,18.59
	C379.83,88.26,372.41,80.61,372.41,69.67 M390.54,78.16c3.6,0,7.57-1.91,7.57-8.11V50.93c0-6.04-3.6-8.26-7.57-8.26
	c-3.75,0-7.5,1.99-7.5,8.18v19.12C383.04,76.02,386.56,78.16,390.54,78.16"/>
<path d="M417.15,33.56h17.13c10.79,0,18.05,6.96,18.05,19.51v1.53c0,8.34-3.6,13.92-9.41,16.52l9.1,16.37h-11.55l-7.27-13.92h-5.51
	v13.92h-10.56V33.56z M432.99,63.55c4.59,0,8.87-1.99,8.87-9.1v-1.53c0-7.42-4.13-9.26-8.87-9.26h-5.28v19.89H432.99z"/>
<polygon points="460.75,33.57 471.31,33.57 471.31,55.75 475.44,55.75 485.99,33.57 497.85,33.57 484.46,60.34 497.85,87.49 
	485.99,87.49 475.44,65.08 471.31,65.08 471.31,87.49 460.75,87.49 "/>
<path class="st0" d="M69.5,49.75c0,13.87-11.25,25.12-25.12,25.12S19.27,63.62,19.27,49.75s11.24-25.12,25.11-25.12
	S69.5,35.88,69.5,49.75"/>
<g>
	<g>
		<defs>
			<rect id="SVGID_1_" x="43.93" y="42.9" width="50.23" height="50.23"/>
		</defs>
		<clipPath id="SVGID_2_">
			<use xlink:href="#SVGID_1_"  style="overflow:visible;"/>
		</clipPath>
		<path class="st1" d="M94.16,68.02c0,13.87-11.25,25.12-25.12,25.12S43.93,81.89,43.93,68.02S55.17,42.9,69.04,42.9
			S94.16,54.15,94.16,68.02"/>
	</g>
</g>
</svg>
