<svg xmlns="http://www.w3.org/2000/svg" xmlns:xlink="http://www.w3.org/1999/xlink" width="1084" zoomAndPan="magnify" viewBox="0 0 812.88 194.87999" height="250" preserveAspectRatio="xMidYMid meet" version="1.0"><defs><clipPath id="b656d0ff71"><path d="M 69.914062 68.628906 L 148.671875 68.628906 L 148.671875 147.382812 L 69.914062 147.382812 Z M 69.914062 68.628906 " clip-rule="nonzero"/></clipPath></defs><path fill="#ffffff" d="M 174.917969 110.601562 L 174.917969 81.578125 C 174.917969 64.425781 186.550781 52.429688 203.34375 52.429688 C 222.050781 52.429688 231.773438 64.660156 231.773438 84.210938 L 231.773438 84.449219 L 215.214844 84.449219 L 215.214844 83.257812 C 215.214844 70.773438 209.097656 68.265625 203.34375 68.265625 C 197.589844 68.265625 191.585938 71.386719 191.585938 81.09375 L 191.585938 111.070312 C 191.585938 121.027344 197.574219 124.023438 203.34375 124.023438 C 211.027344 124.023438 215.214844 120.304688 215.214844 107.949219 L 215.214844 106.886719 L 231.773438 106.886719 L 231.773438 107.371094 C 231.773438 128.601562 222.410156 139.875 203.34375 139.875 C 186.550781 139.859375 174.917969 127.878906 174.917969 110.601562 " fill-opacity="1" fill-rule="nonzero"/><path fill="#ffffff" d="M 240.519531 113 L 240.519531 96.804688 C 240.519531 80.855469 249.757812 70.414062 266.0625 70.414062 C 282.007812 70.414062 291.605469 80.855469 291.605469 96.804688 L 291.605469 113 C 291.605469 129.558594 282.007812 139.75 266.0625 139.75 C 249.757812 139.75 240.519531 129.558594 240.519531 113 M 266.0625 125.714844 C 271.347656 125.714844 275.785156 122.484375 275.785156 115.289062 L 275.785156 94.90625 C 275.785156 87.710938 271.472656 84.589844 266.0625 84.589844 C 260.542969 84.589844 256.339844 87.710938 256.339844 94.90625 L 256.339844 115.289062 C 256.355469 122.46875 260.558594 125.714844 266.0625 125.714844 " fill-opacity="1" fill-rule="nonzero"/><path fill="#ffffff" d="M 303.597656 47.507812 L 319.433594 47.507812 L 319.433594 138.542969 L 303.597656 138.542969 Z M 303.597656 47.507812 " fill-opacity="1" fill-rule="nonzero"/><path fill="#ffffff" d="M 334.0625 47.507812 L 349.898438 47.507812 L 349.898438 138.542969 L 334.0625 138.542969 Z M 334.0625 47.507812 " fill-opacity="1" fill-rule="nonzero"/><path fill="#ffffff" d="M 362.003906 114.675781 L 362.003906 95.125 C 362.003906 77.738281 370.285156 70.304688 382.152344 70.304688 C 392.109375 70.304688 397.265625 76.546875 398.222656 78.695312 L 398.222656 71.136719 L 413.089844 71.136719 L 413.089844 138.542969 L 398.222656 138.542969 L 398.222656 131.109375 C 397.265625 133.382812 392.109375 139.625 382.152344 139.625 C 370.046875 139.625 362.003906 131.957031 362.003906 114.675781 M 387.671875 125.589844 C 393.425781 125.589844 397.265625 121.75 397.265625 113.46875 L 397.265625 96.097656 C 397.265625 87.945312 393.191406 84.339844 387.671875 84.339844 C 381.792969 84.339844 377.949219 88.054688 377.949219 96.332031 L 377.949219 113.484375 C 377.964844 121.875 381.792969 125.589844 387.671875 125.589844 " fill-opacity="1" fill-rule="nonzero"/><path fill="#ffffff" d="M 441.042969 131.234375 L 441.042969 138.558594 L 426.289062 138.558594 L 426.289062 47.992188 L 442 47.992188 L 442 77.25 C 442 77.25 446.5625 70.414062 457.117188 70.414062 C 469.34375 70.414062 477.390625 77.972656 477.390625 95.125 L 477.390625 114.789062 C 477.390625 132.050781 469.359375 139.609375 457.117188 139.609375 C 447.269531 139.625 442 133.507812 441.042969 131.234375 M 451.722656 125.714844 C 457.476562 125.714844 461.425781 121.875 461.425781 113.609375 L 461.425781 96.441406 C 461.425781 88.289062 457.585938 84.449219 451.722656 84.449219 C 446.078125 84.449219 442 88.039062 442 96.082031 L 442 113.59375 C 442 121.875 445.953125 125.714844 451.722656 125.714844 " fill-opacity="1" fill-rule="nonzero"/><path fill="#ffffff" d="M 482.53125 54 L 499.074219 54 L 511.429688 111.558594 L 523.3125 54 L 538.179688 54 L 550.046875 111.558594 L 562.402344 54 L 579.085938 54 L 559.171875 138.542969 L 542.253906 138.542969 L 530.746094 82.535156 L 519.238281 138.542969 L 502.320312 138.542969 Z M 482.53125 54 " fill-opacity="1" fill-rule="nonzero"/><path fill="#ffffff" d="M 584.949219 110.601562 L 584.949219 81.8125 C 584.949219 64.550781 596.582031 52.429688 613.375 52.429688 C 630.042969 52.429688 641.804688 64.550781 641.804688 81.8125 L 641.804688 110.601562 C 641.804688 127.753906 630.042969 139.75 613.375 139.75 C 596.582031 139.75 584.949219 127.753906 584.949219 110.601562 M 613.375 123.914062 C 619.019531 123.914062 625.246094 120.917969 625.246094 111.195312 L 625.246094 81.21875 C 625.246094 71.746094 619.601562 68.265625 613.375 68.265625 C 607.496094 68.265625 601.617188 71.386719 601.617188 81.09375 L 601.617188 111.070312 C 601.617188 120.558594 607.136719 123.914062 613.375 123.914062 " fill-opacity="1" fill-rule="nonzero"/><path fill="#ffffff" d="M 655.097656 53.984375 L 681.957031 53.984375 C 698.875 53.984375 710.257812 64.894531 710.257812 84.574219 L 710.257812 86.972656 C 710.257812 100.046875 704.613281 108.796875 695.503906 112.875 L 709.773438 138.542969 L 691.664062 138.542969 L 680.265625 116.714844 L 671.625 116.714844 L 671.625 138.542969 L 655.066406 138.542969 L 655.066406 53.984375 Z M 679.933594 101.003906 C 687.132812 101.003906 693.84375 97.886719 693.84375 86.738281 L 693.84375 84.339844 C 693.84375 72.703125 687.367188 69.820312 679.933594 69.820312 L 671.65625 69.820312 L 671.65625 101.003906 Z M 679.933594 101.003906 " fill-opacity="1" fill-rule="nonzero"/><path fill="#ffffff" d="M 723.460938 54 L 740.019531 54 L 740.019531 88.773438 L 746.492188 88.773438 L 763.035156 54 L 781.632812 54 L 760.636719 95.972656 L 781.632812 138.542969 L 763.035156 138.542969 L 746.492188 103.402344 L 740.019531 103.402344 L 740.019531 138.542969 L 723.460938 138.542969 Z M 723.460938 54 " fill-opacity="1" fill-rule="nonzero"/><path fill="#9c9cff" d="M 110.007812 79.367188 C 110.007812 101.113281 92.367188 118.753906 70.621094 118.753906 C 48.871094 118.753906 31.25 101.113281 31.25 79.367188 C 31.25 57.621094 48.871094 39.980469 70.621094 39.980469 C 92.367188 39.980469 110.007812 57.621094 110.007812 79.367188 " fill-opacity="1" fill-rule="nonzero"/><g clip-path="url(#b656d0ff71)"><path fill="#c2c2ff" d="M 148.671875 108.015625 C 148.671875 129.761719 131.03125 147.398438 109.285156 147.398438 C 87.539062 147.398438 69.914062 129.761719 69.914062 108.015625 C 69.914062 86.265625 87.539062 68.628906 109.285156 68.628906 C 131.03125 68.628906 148.671875 86.265625 148.671875 108.015625 " fill-opacity="1" fill-rule="nonzero"/></g></svg>